<svg width="108" height="159" viewBox="0 0 108 159" fill="none" xmlns="http://www.w3.org/2000/svg">
<path d="M9.31508 157.5C3.4842 153.316 1.28523 142.665 1.51636 135.931C1.69861 130.622 4.64715 128.534 9.2188 126.259C18.4297 121.676 28.3887 118.341 38.4399 116.248C43.7156 115.149 51.615 115.168 56.4925 112.718C62.2496 109.826 60.2979 100.735 58.37 96.1783C52.8801 83.2019 43.7919 73.5141 31.3633 67.1618C30.4329 66.6862 26.2132 63.8196 25.8272 66.1462C25.2216 69.796 26.2295 72.3824 29.4377 74.4159C32.6083 76.4256 44.7641 83.0459 48.3086 79.8807C56.8059 72.293 44.7132 59.6495 39.9323 54.2978C32.4567 45.9296 25.5963 37.9725 20.7724 27.796C18.3837 22.7567 31.3258 21.3462 33.2408 21.0738C40.0354 20.1073 46.2905 20.9196 53.0264 21.7025C63.9492 22.9721 74.9795 23.4833 85.9543 24.1205C89.825 24.3453 93.6552 24.5677 97.5079 24.991C102.216 25.5083 94.7324 21.8243 94.1863 21.4607C86.0796 16.0631 78.1875 10.3495 70.068 4.96961C65.3178 1.82213 62.4789 -0.382117 69.5866 3.80894C76.9107 8.12757 83.9613 12.9727 91.7311 16.4795C94.2419 17.6127 98.315 19.1389 100.974 20.0582C101.226 20.1454 105.907 21.1393 106.414 21.7509C106.872 22.3032 105.379 22.7464 104.825 23.2017C102.085 25.4543 100.623 26.7563 98.0375 29.537C93.3551 34.5729 89.6458 40.0298 86.4357 46.0764" stroke="#000000" stroke-width="3" stroke-linecap="round"/>
</svg>
