<svg width="88" height="88" viewBox="0 0 88 88" fill="none" xmlns="http://www.w3.org/2000/svg">
<rect y="32" width="64" height="64" rx="32" transform="rotate(-30 0 32)" fill="black"/>
<path d="M50.0156 29.006L28.2642 39.1489C27.3027 39.5972 26.5587 40.4091 26.1959 41.406C25.8331 42.4029 25.8811 43.5031 26.3295 44.4646L32.6687 58.0592C33.1171 59.0207 33.929 59.7647 34.9259 60.1275C35.9228 60.4903 37.023 60.4423 37.9844 59.994L59.7358 49.8511C60.6973 49.4028 61.4413 48.5909 61.8041 47.594C62.167 46.5971 62.1189 45.4969 61.6706 44.5354L55.3313 30.9408C54.883 29.9793 54.071 29.2353 53.0742 28.8725C52.0773 28.5097 50.9771 28.5577 50.0156 29.006ZM59.858 45.3807C60.0821 45.8614 60.1061 46.4115 59.9247 46.9099C59.7433 47.4084 59.3713 47.8143 58.8906 48.0385L37.1392 58.1813C36.6585 58.4055 36.1084 58.4295 35.6099 58.2481C35.1115 58.0667 34.7055 57.6947 34.4813 57.214L28.1421 43.6194C27.9179 43.1386 27.8939 42.5885 28.0753 42.0901C28.2567 41.5916 28.6287 41.1857 29.1094 40.9615L50.8608 30.8187C51.3416 30.5945 51.8917 30.5705 52.3901 30.7519C52.8886 30.9333 53.2945 31.3053 53.5187 31.786L59.858 45.3807Z" fill="white"/>
<path d="M52.0766 33.9701C51.9581 33.9129 51.8294 33.8796 51.6979 33.8722C51.5665 33.8648 51.4349 33.8834 51.3107 33.927C51.1864 33.9705 51.072 34.0382 50.974 34.1261C50.876 34.214 50.7963 34.3204 50.7395 34.4391L44.934 46.5029L31.9518 43.2C31.822 43.1576 31.6848 43.1423 31.5488 43.1549C31.4129 43.1676 31.2809 43.2079 31.1611 43.2735C31.0414 43.3391 30.9363 43.4285 30.8524 43.5363C30.7685 43.644 30.7075 43.7678 30.6733 43.9C30.6391 44.0323 30.6323 44.1701 30.6534 44.305C30.6745 44.4399 30.723 44.5691 30.7959 44.6846C30.8688 44.8 30.9646 44.8994 31.0774 44.9764C31.1902 45.0534 31.3175 45.1065 31.4516 45.1324L45.2245 48.6404C45.4506 48.6995 45.6902 48.6775 45.9018 48.5784C46.1097 48.4794 46.277 48.3117 46.3756 48.1037L52.5414 35.2981C52.6545 35.0602 52.6691 34.7872 52.5821 34.5385C52.495 34.2899 52.3134 34.0856 52.0766 33.9701V33.9701Z" fill="white"/>
<path d="M51.7351 42.8681C51.4866 42.7785 51.2127 42.7909 50.9733 42.9025C50.7338 43.0142 50.5483 43.216 50.4572 43.464C50.4115 43.5879 50.3909 43.7196 50.3963 43.8515C50.4018 43.9834 50.4334 44.1129 50.4892 44.2325C50.545 44.3522 50.6239 44.4596 50.7214 44.5485C50.8189 44.6375 50.9331 44.7063 51.0573 44.751L56.373 46.6857C56.4967 46.7302 56.6278 46.7499 56.7591 46.7438C56.8903 46.7376 57.0191 46.7056 57.138 46.6496C57.2569 46.5937 57.3636 46.5149 57.452 46.4177C57.5404 46.3205 57.6088 46.2068 57.6533 46.0832C57.6978 45.9596 57.7176 45.8284 57.7114 45.6971C57.7052 45.5659 57.6732 45.4371 57.6172 45.3183C57.5613 45.1994 57.4825 45.0927 57.3853 45.0042C57.2881 44.9158 57.1744 44.8474 57.0508 44.8029L51.7351 42.8681Z" fill="white"/>
<path d="M37.8051 49.3638L35.8704 54.6795C35.7787 54.9285 35.7898 55.2038 35.9011 55.4447C36.0124 55.6856 36.2148 55.8724 36.4638 55.964C36.7129 56.0557 36.9881 56.0446 37.229 55.9333C37.4699 55.822 37.6567 55.6196 37.7484 55.3705L39.6831 50.0548C39.7288 49.931 39.7495 49.7993 39.744 49.6674C39.7385 49.5355 39.707 49.406 39.6512 49.2864C39.5954 49.1667 39.5164 49.0593 39.4189 48.9703C39.3214 48.8813 39.2073 48.8125 39.083 48.7679C38.8345 48.6783 38.5606 48.6906 38.3212 48.8023C38.0817 48.9139 37.8962 49.1158 37.8051 49.3638V49.3638Z" fill="white"/>
</svg>
