<svg width="88" height="88" viewBox="0 0 88 88" fill="none" xmlns="http://www.w3.org/2000/svg">
<rect y="32" width="64" height="64" rx="32" transform="rotate(-30 0 32)" fill="#6C2831"/>
<path d="M46.243 57.3339C40.4237 63.6098 36.9061 57.5171 33.6553 58.3525M57.9287 54.753L54.7719 49.2852C53.87 47.723 53.6739 47.003 52.1445 46.6362C56.4855 43.5051 59.9402 39.2193 55.7912 32.0331C54.7113 30.1673 52.9083 28.8178 50.7639 28.2701C50.4707 26.2772 49.374 24.5143 47.713 23.3661C47.713 23.3661 45.6307 23.9434 43.1211 28.7251C39.2957 29.8309 35.7802 31.8606 32.9098 34.6205C27.514 34.4031 25.9729 35.9177 25.9729 35.9177C26.1367 37.9303 27.1151 39.7616 28.6944 41.0119C28.0965 43.1429 28.3637 45.3791 29.4396 47.2472C33.5885 54.4334 39.0275 53.5845 43.9096 51.3907C43.4626 52.8985 44.0038 53.8359 44.89 54.9905L48.0469 60.4583" stroke="white" stroke-width="1.83333" stroke-linecap="round" stroke-linejoin="round"/>
</svg>
