<svg width="88" height="88" viewBox="0 0 88 88" fill="none" xmlns="http://www.w3.org/2000/svg">
<rect y="32" width="64" height="64" rx="32" transform="rotate(-30 0 32)" fill="#595F34"/>
<path d="M46.0503 28.25H38.75C35.4502 28.25 33.8003 28.25 32.7751 29.2751C31.75 30.3003 31.75 31.9502 31.75 35.25V52.75C31.75 56.0498 31.75 57.6997 32.7751 58.7249C33.8003 59.75 35.4502 59.75 38.75 59.75H49.25C52.5498 59.75 54.1997 59.75 55.2249 58.7249C56.25 57.6997 56.25 56.0498 56.25 52.75V38.4497C56.25 37.7344 56.25 37.3768 56.1168 37.0552C55.9836 36.7336 55.7307 36.4807 55.2249 35.9749L48.5251 29.2751C48.0193 28.7693 47.7664 28.5164 47.4448 28.3832C47.1232 28.25 46.7656 28.25 46.0503 28.25Z" stroke="white" stroke-width="2"/>
<path d="M38.75 45.75L49.25 45.75" stroke="white" stroke-width="2" stroke-linecap="round"/>
<path d="M38.75 52.75L45.75 52.75" stroke="white" stroke-width="2" stroke-linecap="round"/>
<path d="M45.75 28.25V35.25C45.75 36.8999 45.75 37.7249 46.2626 38.2374C46.7751 38.75 47.6001 38.75 49.25 38.75H56.25" stroke="white" stroke-width="2"/>
</svg>
