<svg width="88" height="88" viewBox="0 0 88 88" fill="none" xmlns="http://www.w3.org/2000/svg">
<g clip-path="url(#clip0_9_6)">
<rect y="32" width="64" height="64" rx="32" transform="rotate(-30 0 32)" fill="#595F34"/>
<path d="M37.9006 29.335L31.5784 32.9851C28.7206 34.635 27.2918 35.46 26.9166 36.8603C26.5413 38.2607 27.3663 39.6895 29.0162 42.5473L37.7662 57.7027C39.4161 60.5605 40.2411 61.9893 41.6414 62.3646C43.0418 62.7398 44.4706 61.9148 47.3284 60.2649L56.4216 55.0149C59.2794 53.365 60.7083 52.54 61.0835 51.1397C61.4587 49.7393 60.6337 48.3105 58.9838 45.4527L51.8337 33.0683C51.476 32.4489 51.2972 32.1391 51.0211 31.9272C50.7449 31.7153 50.3994 31.6227 49.7085 31.4376L40.5565 28.9853C39.8655 28.8002 39.52 28.7076 39.1749 28.7531C38.8298 28.7985 38.5201 28.9773 37.9006 29.335Z" stroke="white" stroke-width="2"/>
<path d="M40.3284 48.1405L49.4216 42.8905" stroke="white" stroke-width="2" stroke-linecap="round"/>
<path d="M43.8284 54.2027L49.8905 50.7027" stroke="white" stroke-width="2" stroke-linecap="round"/>
<path d="M37.6406 29.4851L41.1406 35.5473C41.9655 36.9761 42.378 37.6906 43.0782 37.8782C43.7783 38.0658 44.4928 37.6533 45.9217 36.8284L51.9838 33.3284" stroke="white" stroke-width="2"/>
</g>
<defs>
<clipPath id="clip0_9_6">
<rect y="32" width="64" height="64" rx="32" transform="rotate(-30 0 32)" fill="white"/>
</clipPath>
</defs>
</svg>
