<svg width="88" height="88" viewBox="0 0 88 88" fill="none" xmlns="http://www.w3.org/2000/svg">
<rect y="32" width="64" height="64" rx="32" transform="rotate(-30 0 32)" fill="#000000"/>
<path d="M35.9297 46.0654L40.9818 54.8158M32.8984 40.8151L32.9086 40.8326M47.9821 50.7742L42.9301 42.0237M23.8772 41.3566C23.3413 40.4283 23.1961 39.3251 23.4735 38.2897C23.7509 37.2543 24.4283 36.3715 25.3566 35.8356L46.3577 23.7106C47.286 23.1746 48.3892 23.0294 49.4246 23.3068C50.46 23.5843 51.3428 24.2616 51.8787 25.1899L64.0037 46.191C64.5397 47.1193 64.6849 48.2225 64.4075 49.2579C64.13 50.2933 63.4527 51.1761 62.5244 51.7121L41.5233 63.837C40.5949 64.373 39.4918 64.5182 38.4564 64.2408C37.421 63.9634 36.5382 63.286 36.0022 62.3577L23.8772 41.3566Z" stroke="white" stroke-width="1.83333" stroke-linecap="round" stroke-linejoin="round"/>
<path d="M54.9825 46.7325L51.9513 41.4822C51.4153 40.5539 50.5325 39.8766 49.4971 39.5991C48.4617 39.3217 47.3585 39.4669 46.4302 40.0029C45.5019 40.5389 44.8246 41.4216 44.5471 42.457C44.2697 43.4924 44.4149 44.5956 44.9509 45.5239" stroke="white" stroke-width="1.83333" stroke-linecap="round" stroke-linejoin="round"/>
</svg>
