<svg width="24" height="24" viewBox="0 0 24 24" fill="none" xmlns="http://www.w3.org/2000/svg">
<path d="M15.8187 9.84628L12.152 13.5129L8.48532 9.84628" stroke="#353B43" stroke-width="1.83333" stroke-linecap="round" stroke-linejoin="round"/>
<path d="M1 3.44444C1 2.79614 1.25754 2.17438 1.71596 1.71596C2.17438 1.25754 2.79614 1 3.44444 1H20.5556C21.2039 1 21.8256 1.25754 22.284 1.71596C22.7425 2.17438 23 2.79614 23 3.44444V20.5556C23 21.2039 22.7425 21.8256 22.284 22.284C21.8256 22.7425 21.2039 23 20.5556 23H3.44444C2.79614 23 2.17438 22.7425 1.71596 22.284C1.25754 21.8256 1 21.2039 1 20.5556V3.44444Z" stroke="#353B43" stroke-width="1.83333" stroke-linecap="round" stroke-linejoin="round"/>
</svg>
