<svg width="251" height="136" viewBox="0 0 251 136" fill="none" xmlns="http://www.w3.org/2000/svg">
<path d="M249 26.9768C231.382 21.8837 217.506 8.75379 200.117 2.64043C187.123 -1.92824 184.87 19.2161 184.004 25.8777C181.752 43.208 179.902 60.129 178.573 77.5336C177.187 95.6769 166.475 116.994 140.553 111.605C122.375 107.825 104.667 85.1875 99.274 70.1542C95.766 60.3757 100.278 57.7714 108.326 65.8365C120.269 77.8041 125.006 95.5312 114.12 109.406C106.994 118.489 92.1198 118.599 80.8072 117.571C65.2939 116.161 56.0008 108.092 47.3135 97.4737C41.0754 89.8488 36.2645 81.6035 32.6487 72.8233C30.594 67.8341 28.0768 62.1318 22.6006 59.1636C11.6053 53.204 4.07216 69.9676 4.22427 76.8271C4.39902 84.7076 9.69445 90.9431 13.2766 97.8663C18.1973 107.376 19.0239 116.696 16.7165 126.834C14.1304 138.198 10.2081 122.7 8.20731 117.414C8.09888 117.127 4.86309 104.74 2.59483 107.993C-0.118572 111.885 12.1145 127.181 13.2766 131.5C14.9984 137.899 19.5 131.5 27 129C37.5 120.782 33.3387 123.204 42 117.571" stroke="#575454" stroke-width="3" stroke-linecap="round"/>
</svg>
