<svg width="160" height="109" viewBox="0 0 160 109" fill="none" xmlns="http://www.w3.org/2000/svg">
<path d="M2 9.81508C6.18401 3.9842 16.8354 1.78523 23.569 2.01636C28.8783 2.19861 30.9663 5.14715 33.2412 9.7188C37.8245 18.9297 41.1585 28.8887 43.2519 38.9399C44.3506 44.2156 44.3323 52.115 46.7822 56.9925C49.674 62.7496 58.7645 60.7979 63.3217 58.87C76.2981 53.3801 85.9859 44.2919 92.3382 31.8633C92.8138 30.9329 95.6804 26.7132 93.3538 26.3272C89.704 25.7216 87.1176 26.7295 85.0841 29.9377C83.0744 33.1083 76.4541 45.2641 79.6193 48.8086C87.207 57.3059 99.8505 45.2132 105.202 40.4323C113.57 32.9567 121.528 26.0963 131.704 21.2724C136.743 18.8837 138.154 31.8258 138.426 33.7408C139.393 40.5354 138.58 46.7905 137.798 53.5264C136.528 64.4492 136.017 75.4795 135.379 86.4543C135.155 90.325 134.932 94.1552 134.509 98.0079C133.992 102.716 137.676 95.2324 138.039 94.6863C143.437 86.5796 149.15 78.6875 154.53 70.568C157.678 65.8178 159.882 62.9789 155.691 70.0866C151.372 77.4107 146.527 84.4613 143.02 92.2311C141.887 94.7419 140.361 98.815 139.442 101.474C139.355 101.726 138.361 106.407 137.749 106.914C137.197 107.372 136.754 105.879 136.298 105.325C134.046 102.585 132.744 101.123 129.963 98.5375C124.927 93.8551 119.47 90.1458 113.424 86.9357" stroke="#575454" stroke-width="3" stroke-linecap="round"/>
</svg>
